<?xml version="1.0" encoding="utf-8"?>
<svg version="1.1" xmlns:xlink="http://www.w3.org/1999/xlink" width="25px" height="24px" xmlns="http://www.w3.org/2000/svg">
  <g transform="matrix(1 0 0 1 -661 -737 )">
    <path d="M 24.749498997995993 11.031055900621118  C 24.916499665998664 11.196687370600412  25 11.387163561076601  25 11.602484472049689  C 25 11.817805383022774  24.916499665998664 12.008281573498964  24.749498997995993 12.173913043478262  L 13.076152304609218 23.751552795031056  C 12.909151636606547 23.917184265010356  12.717100868403474 24  12.5 24  C 12.282899131596528 24  12.090848363393455 23.917184265010356  11.923847695390782 23.751552795031056  L 0.250501002004008 12.173913043478262  C 0.08350033400133625 12.008281573498964  0 11.817805383022774  0 11.602484472049689  C 0 11.387163561076601  0.08350033400133625 11.196687370600412  0.250501002004008 11.031055900621118  L 1.503006012024048 9.788819875776397  C 1.6700066800267206 9.623188405797098  1.8620574482297931 9.540372670807454  2.0791583166332663 9.540372670807454  C 2.2962591850367406 9.540372670807454  2.488309953239813 9.623188405797098  2.655310621242485 9.788819875776397  L 12.5 19.5527950310559  L 22.344689378757515 9.788819875776397  C 22.511690046760187 9.623188405797098  22.70374081496326 9.540372670807454  22.92084168336673 9.540372670807454  C 23.13794255177021 9.540372670807454  23.329993319973283 9.623188405797098  23.49699398797595 9.788819875776397  L 24.749498997995993 11.031055900621118  Z M 24.749498997995993 1.4906832298136647  C 24.916499665998664 1.656314699792957  25 1.8467908902691494  25 2.062111801242237  C 25 2.277432712215316  24.916499665998664 2.4679089026915086  24.749498997995993 2.633540372670806  L 13.076152304609218 14.2111801242236  C 12.909151636606547 14.376811594202898  12.717100868403474 14.459627329192546  12.5 14.459627329192546  C 12.282899131596528 14.459627329192546  12.090848363393455 14.376811594202898  11.923847695390782 14.2111801242236  L 0.250501002004008 2.633540372670806  C 0.08350033400133625 2.4679089026915086  0 2.277432712215316  0 2.062111801242237  C 0 1.8467908902691494  0.08350033400133625 1.656314699792957  0.250501002004008 1.4906832298136647  L 1.503006012024048 0.24844720496894368  C 1.6700066800267206 0.08281573498964612  1.8620574482297931 0  2.0791583166332663 0  C 2.2962591850367406 0  2.488309953239813 0.08281573498964612  2.655310621242485 0.24844720496894368  L 12.5 10.012422360248447  L 22.344689378757515 0.24844720496894368  C 22.511690046760187 0.08281573498964612  22.70374081496326 0  22.92084168336673 0  C 23.13794255177021 0  23.329993319973283 0.08281573498964612  23.49699398797595 0.24844720496894368  L 24.749498997995993 1.4906832298136647  Z " fill-rule="nonzero" fill="#000000" stroke="none" transform="matrix(1 0 0 1 661 737 )" />
  </g>
</svg>