<?xml version="1.0" encoding="utf-8"?>
<svg version="1.1" xmlns:xlink="http://www.w3.org/1999/xlink" width="11px" height="11px" xmlns="http://www.w3.org/2000/svg">
  <g transform="matrix(1 0 0 1 -406 -2742 )">
    <path d="M 6.513457556935818 5.246492985971944  C 6.589371980676329 5.319973279893119  6.6273291925465845 5.404475617902471  6.6273291925465845 5.5  C 6.6273291925465845 5.595524382097528  6.589371980676329 5.68002672010688  6.513457556935818 5.753507014028056  L 1.2070393374741202 10.889779559118237  C 1.1311249137336095 10.963259853039412  1.0438233264320222 11  0.9451345755693582 11  C 0.8464458247066944 11  0.759144237405107 10.963259853039412  0.6832298136645962 10.889779559118237  L 0.11387163561076605 10.33867735470942  C 0.03795721187025538 10.265197060788243  0 10.180694722778892  0 10.085170340681362  C 0 9.989645958583834  0.03795721187025538 9.905143620574483  0.11387163561076605 9.831663326653306  L 4.589026915113871 5.5  L 0.11387163561076605 1.1683366733466933  C 0.03795721187025538 1.0948563794255173  0 1.0103540414161651  0 0.9148296593186376  C 0 0.8193052772211075  0.03795721187025538 0.7348029392117555  0.11387163561076605 0.6613226452905806  L 0.6832298136645962 0.11022044088176364  C 0.759144237405107 0.03674014696058747  0.8464458247066944 0  0.9451345755693582 0  C 1.0438233264320222 0  1.1311249137336095 0.03674014696058747  1.2070393374741202 0.11022044088176364  L 6.513457556935818 5.246492985971944  Z M 10.886128364389235 5.246492985971944  C 10.962042788129745 5.319973279893119  11 5.404475617902471  11 5.5  C 11 5.595524382097528  10.962042788129745 5.68002672010688  10.886128364389235 5.753507014028056  L 5.579710144927537 10.889779559118237  C 5.503795721187027 10.963259853039412  5.416494133885438 11  5.317805383022774 11  C 5.219116632160111 11  5.131815044858524 10.963259853039412  5.055900621118012 10.889779559118237  L 4.486542443064183 10.33867735470942  C 4.410628019323672 10.265197060788243  4.3726708074534155 10.180694722778892  4.3726708074534155 10.085170340681362  C 4.3726708074534155 9.989645958583834  4.410628019323672 9.905143620574483  4.486542443064183 9.831663326653306  L 8.961697722567287 5.5  L 4.486542443064183 1.1683366733466933  C 4.410628019323672 1.0948563794255173  4.3726708074534155 1.0103540414161651  4.3726708074534155 0.9148296593186376  C 4.3726708074534155 0.8193052772211075  4.410628019323672 0.7348029392117555  4.486542443064183 0.6613226452905806  L 5.055900621118012 0.11022044088176364  C 5.131815044858524 0.03674014696058747  5.219116632160111 0  5.317805383022774 0  C 5.416494133885438 0  5.503795721187027 0.03674014696058747  5.579710144927537 0.11022044088176364  L 10.886128364389235 5.246492985971944  Z " fill-rule="nonzero" fill="#7f7f7f" stroke="none" transform="matrix(1 0 0 1 406 2742 )" />
  </g>
</svg>